<svg xmlns="http://www.w3.org/2000/svg" viewBox="0 0 900 520"><rect width="900" height="520" fill="#08090b"/><rect x="0" y="0" width="900" height="520" fill="url(#bg)"/><defs><linearGradient id="bg" x1="0" y1="0" x2="1" y2="1"><stop stop-color="#131116"/><stop offset="1" stop-color="#08090b"/></linearGradient></defs>
<text x="45" y="58" fill="#777" font-family="Arial" font-size="15" letter-spacing="4">COMPUTER VISION / OCR</text><text x="45" y="105" fill="#fff" font-family="Arial" font-size="34" font-weight="700">Handwritten → Digital</text><text x="45" y="135" fill="#666" font-family="Arial" font-size="15">CRNN recognition pipeline</text>
<rect x="45" y="175" width="280" height="230" rx="12" fill="#f0eee8"/><text x="72" y="225" fill="#242124" font-family="cursive" font-size="34" transform="rotate(-4 72 225)">The quick</text><text x="72" y="270" fill="#242124" font-family="cursive" font-size="34" transform="rotate(-4 72 270)">brown fox</text><text x="72" y="315" fill="#242124" font-family="cursive" font-size="34" transform="rotate(-4 72 315)">jumps over</text><text x="72" y="360" fill="#242124" font-family="cursive" font-size="34" transform="rotate(-4 72 360)">the lazy dog</text>
<path d="M350 290h60" stroke="#ed1233" stroke-width="4"/><path d="M400 280l15 10-15 10" fill="none" stroke="#ed1233" stroke-width="4"/>
<rect x="445" y="175" width="390" height="230" rx="12" fill="#0d0f12" stroke="#2a2d32"/><text x="475" y="225" fill="#777" font-family="Arial" font-size="13">MODEL ARCHITECTURE</text><g font-family="Arial"><rect x="475" y="255" width="85" height="58" rx="8" fill="#15171b" stroke="#3a3d42"/><text x="517" y="289" text-anchor="middle" fill="#fff" font-size="13">CNN</text><path d="M570 284h32" stroke="#ed1233" stroke-width="2"/><rect x="612" y="255" width="85" height="58" rx="8" fill="#15171b" stroke="#3a3d42"/><text x="654" y="289" text-anchor="middle" fill="#fff" font-size="13">BiLSTM</text><path d="M707 284h32" stroke="#ed1233" stroke-width="2"/><rect x="749" y="255" width="55" height="58" rx="8" fill="#15171b" stroke="#3a3d42"/><text x="777" y="289" text-anchor="middle" fill="#fff" font-size="11">CTC</text></g><text x="475" y="350" fill="#fff" font-family="Arial" font-size="27" font-weight="700">87% <tspan fill="#777" font-size="14">word accuracy</tspan></text><text x="475" y="378" fill="#ed1233" font-family="Arial" font-size="14">22% lower character error rate</text></svg>
